{
 "asset": {
  "version": "2.0",
  "generator": "sltool shp gltf"
 },
 "scene": 0,
 "scenes": [
  {
   "nodes": [
    0,
    1,
    2,
    3,
    4,
    5,
    6,
    7,
    8,
    9,
    10,
    11,
    12,
    13,
    14,
    15
   ]
  }
 ],
 "nodes": [
  {
   "name": "Kam link rod 1",
   "translation": [
    -21.682498931884766,
    8.742069244384766,
    124.18228912353516
   ],
   "mesh": 0,
   "extras": {
    "class": "class 0",
    "component": false,
    "targetable": false,
    "component_armor": 0
   }
  },
  {
   "name": "Kamov Body",
   "translation": [
    63.382102966308594,
    -114.25456237792969,
    1102.279296875
   ],
   "mesh": 1,
   "children": [
    16,
    17,
    18,
    19
   ],
   "extras": {
    "class": "class 0",
    "component": false,
    "targetable": false,
    "component_armor": 0
   }
  },
  {
   "name": "Kamov Tur Base",
   "translation": [
    64.1259536743164,
    -167.31655883789062,
    1725.243408203125
   ],
   "mesh": 2,
   "extras": {
    "class": "class 0",
    "component": false,
    "targetable": false,
    "component_armor": 0
   }
  },
  {
   "name": "Kamov tur gun2",
   "translation": [
    132.1527099609375,
    -175.911865234375,
    1790.716552734375
   ],
   "mesh": 3,
   "children": [
    20
   ],
   "extras": {
    "class": "class 0",
    "component": false,
    "targetable": false,
    "component_armor": 0
   }
  },
  {
   "name": "Kamov tur gun1",
   "translation": [
    -6.217155456542969,
    -175.9167022705078,
    1789.89404296875
   ],
   "mesh": 4,
   "children": [
    21
   ],
   "extras": {
    "class": "class 0",
    "component": false,
    "targetable": false,
    "component_armor": 0
   }
  },
  {
   "name": "Kam link rod3",
   "translation": [
    149.70724487304688,
    -118.67912292480469,
    124.10482025146484
   ],
   "mesh": 5,
   "extras": {
    "class": "class 0",
    "component": false,
    "targetable": false,
    "component_armor": 0
   }
  },
  {
   "name": "Kam link rod 2",
   "translation": [
    157.96481323242188,
    -8.567235946655273,
    124.10179138183594
   ],
   "mesh": 6,
   "extras": {
    "class": "class 0",
    "component": false,
    "targetable": false,
    "component_armor": 0
   }
  },
  {
   "name": "Kam link rod4",
   "translation": [
    -30.011009216308594,
    -102.73445892333984,
    124.09834289550781
   ],
   "mesh": 7,
   "extras": {
    "class": "class 0",
    "component": false,
    "targetable": false,
    "component_armor": 0
   }
  },
  {
   "name": "Kam torp hold1",
   "translation": [
    -124.88839721679688,
    115.94248962402344,
    -58.75886535644531
   ],
   "mesh": 8,
   "children": [
    22
   ],
   "extras": {
    "class": "class 0",
    "component": false,
    "targetable": false,
    "component_armor": 0
   }
  },
  {
   "name": "Kam torp flap1",
   "translation": [
    -211.18409729003906,
    204.68594360351562,
    153.60610961914062
   ],
   "mesh": 9,
   "extras": {
    "class": "class 0",
    "component": false,
    "targetable": false,
    "component_armor": 0
   }
  },
  {
   "name": "Kam torp hold3",
   "translation": [
    259.0292663574219,
    -225.72662353515625,
    -55.435546875
   ],
   "mesh": 10,
   "children": [
    23
   ],
   "extras": {
    "class": "class 0",
    "component": false,
    "targetable": false,
    "component_armor": 0
   }
  },
  {
   "name": "Kam torp flap3",
   "translation": [
    342.5152893066406,
    -315.1583251953125,
    158.7650146484375
   ],
   "mesh": 11,
   "extras": {
    "class": "class 0",
    "component": false,
    "targetable": false,
    "component_armor": 0
   }
  },
  {
   "name": "Kam torp hold2",
   "translation": [
    257.0466613769531,
    130.94989013671875,
    -59.70854187011719
   ],
   "mesh": 12,
   "children": [
    24
   ],
   "extras": {
    "class": "class 0",
    "component": false,
    "targetable": false,
    "component_armor": 0
   }
  },
  {
   "name": "Kam torp flap2",
   "translation": [
    385.56011962890625,
    132.45994567871094,
    149.4156951904297
   ],
   "mesh": 13,
   "extras": {
    "class": "class 0",
    "component": false,
    "targetable": false,
    "component_armor": 0
   }
  },
  {
   "name": "Kam torp hold4",
   "translation": [
    -121.07856750488281,
    -243.943359375,
    -61.4029541015625
   ],
   "mesh": 14,
   "children": [
    25
   ],
   "extras": {
    "class": "class 0",
    "component": false,
    "targetable": false,
    "component_armor": 0
   }
  },
  {
   "name": "Kam torp flap4",
   "translation": [
    -243.06480407714844,
    -254.21075439453125,
    152.20870971679688
   ],
   "mesh": 15,
   "extras": {
    "class": "class 0",
    "component": false,
    "targetable": false,
    "component_armor": 0
   }
  },
  {
   "name": "engine_glow:1",
   "translation": [
    -242.52000427246094,
    -226.60000610351562,
    -247.55999755859375
   ],
   "rotation": [
    -0,
    0,
    0.7939373850822449,
    0.6079995036125183
   ]
  },
  {
   "name": "engine_glow:1",
   "translation": [
    238.2002716064453,
    -240.656494140625,
    -246.97386169433594
   ],
   "rotation": [
    0,
    0,
    -0.7822821736335754,
    0.622924268245697
   ]
  },
  {
   "name": "engine_glow:1",
   "translation": [
    -1.3317251205444336,
    56.18370819091797,
    -1220.045654296875
   ]
  },
  {
   "name": "jump_trail",
   "translation": [
    1.5312188863754272,
    60.607147216796875,
    -1218.210693359375
   ]
  },
  {
   "name": "gun_muzzle:2",
   "translation": [
    0.7900000214576721,
    -0.6600000262260437,
    134.39999389648438
   ]
  },
  {
   "name": "gun_muzzle:2",
   "translation": [
    0.07999999821186066,
    0.2199999988079071,
    135.22000122070312
   ]
  },
  {
   "name": "launch_point",
   "translation": [
    74.6500015258789,
    -22.489999771118164,
    82.6500015258789
   ],
   "rotation": [
    0,
    0,
    -0.8453084230422974,
    0.5342786908149719
   ]
  },
  {
   "name": "launch_point",
   "translation": [
    -76.13999938964844,
    26.350000381469727,
    70.43000030517578
   ],
   "rotation": [
    -0,
    0,
    0.5337621569633484,
    0.8456346988677979
   ]
  },
  {
   "name": "launch_point",
   "translation": [
    -69.6500015258789,
    -33.54999923706055,
    76.01000213623047
   ],
   "rotation": [
    -0,
    0,
    0.8315665125846863,
    0.5554251670837402
   ]
  },
  {
   "name": "launch_point",
   "translation": [
    67.52999877929688,
    43.70000076293945,
    76.47000122070312
   ],
   "rotation": [
    -0,
    -0,
    -0.5224985480308533,
    0.8526402115821838
   ]
  }
 ],
 "meshes": [
  {
   "name": "Kam link rod 1",
   "primitives": [
    {
     "attributes": {
      "POSITION": 0,
      "NORMAL": 1,
      "TEXCOORD_0": 2
     },
     "material": 0
    }
   ]
  },
  {
   "name": "Kamov Body",
   "primitives": [
    {
     "attributes": {
      "POSITION": 3,
      "NORMAL": 4,
      "TEXCOORD_0": 5
     },
     "material": 0
    }
   ]
  },
  {
   "name": "Kamov Tur Base",
   "primitives": [
    {
     "attributes": {
      "POSITION": 6,
      "NORMAL": 7,
      "TEXCOORD_0": 8
     },
     "material": 0
    }
   ]
  },
  {
   "name": "Kamov tur gun2",
   "primitives": [
    {
     "attributes": {
      "POSITION": 9,
      "NORMAL": 10,
      "TEXCOORD_0": 11
     },
     "material": 0
    }
   ]
  },
  {
   "name": "Kamov tur gun1",
   "primitives": [
    {
     "attributes": {
      "POSITION": 12,
      "NORMAL": 13,
      "TEXCOORD_0": 14
     },
     "material": 0
    }
   ]
  },
  {
   "name": "Kam link rod3",
   "primitives": [
    {
     "attributes": {
      "POSITION": 15,
      "NORMAL": 16,
      "TEXCOORD_0": 17
     },
     "material": 0
    }
   ]
  },
  {
   "name": "Kam link rod 2",
   "primitives": [
    {
     "attributes": {
      "POSITION": 18,
      "NORMAL": 19,
      "TEXCOORD_0": 20
     },
     "material": 0
    }
   ]
  },
  {
   "name": "Kam link rod4",
   "primitives": [
    {
     "attributes": {
      "POSITION": 21,
      "NORMAL": 22,
      "TEXCOORD_0": 23
     },
     "material": 0
    }
   ]
  },
  {
   "name": "Kam torp hold1",
   "primitives": [
    {
     "attributes": {
      "POSITION": 24,
      "NORMAL": 25,
      "TEXCOORD_0": 26
     },
     "material": 0
    }
   ]
  },
  {
   "name": "Kam torp flap1",
   "primitives": [
    {
     "attributes": {
      "POSITION": 27,
      "NORMAL": 28,
      "TEXCOORD_0": 29
     },
     "material": 0
    }
   ]
  },
  {
   "name": "Kam torp hold3",
   "primitives": [
    {
     "attributes": {
      "POSITION": 30,
      "NORMAL": 31,
      "TEXCOORD_0": 32
     },
     "material": 0
    }
   ]
  },
  {
   "name": "Kam torp flap3",
   "primitives": [
    {
     "attributes": {
      "POSITION": 33,
      "NORMAL": 34,
      "TEXCOORD_0": 35
     },
     "material": 0
    }
   ]
  },
  {
   "name": "Kam torp hold2",
   "primitives": [
    {
     "attributes": {
      "POSITION": 36,
      "NORMAL": 37,
      "TEXCOORD_0": 38
     },
     "material": 0
    }
   ]
  },
  {
   "name": "Kam torp flap2",
   "primitives": [
    {
     "attributes": {
      "POSITION": 39,
      "NORMAL": 40,
      "TEXCOORD_0": 41
     },
     "material": 0
    }
   ]
  },
  {
   "name": "Kam torp hold4",
   "primitives": [
    {
     "attributes": {
      "POSITION": 42,
      "NORMAL": 43,
      "TEXCOORD_0": 44
     },
     "material": 0
    }
   ]
  },
  {
   "name": "Kam torp flap4",
   "primitives": [
    {
     "attributes": {
      "POSITION": 45,
      "NORMAL": 46,
      "TEXCOORD_0": 47
     },
     "material": 0
    }
   ]
  }
 ],
 "materials": [
  {
   "name": "KAMOV",
   "pbrMetallicRoughness": {
    "baseColorTexture": {
     "index": 0
    },
    "metallicFactor": 0,
    "roughnessFactor": 1
   },
   "doubleSided": false
  }
 ],
 "textures": [
  {
   "source": 0
  }
 ],
 "images": [
  {
   "uri": "KAMOV.png"
  }
 ],
 "accessors": [
  {
   "bufferView": 0,
   "componentType": 5126,
   "count": 36,
   "type": "VEC3",
   "min": [
    -61.597530364990234,
    -86.27052307128906,
    -144.47207641601562
   ],
   "max": [
    94.02926635742188,
    51.91913986206055,
    153.19528198242188
   ]
  },
  {
   "bufferView": 1,
   "componentType": 5126,
   "count": 36,
   "type": "VEC3"
  },
  {
   "bufferView": 2,
   "componentType": 5126,
   "count": 36,
   "type": "VEC2"
  },
  {
   "bufferView": 3,
   "componentType": 5126,
   "count": 576,
   "type": "VEC3",
   "min": [
    -316.8153381347656,
    -346.35272216796875,
    -1218.36474609375
   ],
   "max": [
    321.3656921386719,
    318.98974609375,
    771.1222534179688
   ]
  },
  {
   "bufferView": 4,
   "componentType": 5126,
   "count": 576,
   "type": "VEC3"
  },
  {
   "bufferView": 5,
   "componentType": 5126,
   "count": 576,
   "type": "VEC2"
  },
  {
   "bufferView": 6,
   "componentType": 5126,
   "count": 30,
   "type": "VEC3",
   "min": [
    -57.55009460449219,
    -33.052886962890625,
    -72.2891845703125
   ],
   "max": [
    57.55529022216797,
    29.731910705566406,
    58.5123291015625
   ]
  },
  {
   "bufferView": 7,
   "componentType": 5126,
   "count": 30,
   "type": "VEC3"
  },
  {
   "bufferView": 8,
   "componentType": 5126,
   "count": 30,
   "type": "VEC2"
  },
  {
   "bufferView": 9,
   "componentType": 5126,
   "count": 78,
   "type": "VEC3",
   "min": [
    -10.159896850585938,
    -15.03875732421875,
    -76.0555419921875
   ],
   "max": [
    10.144912719726562,
    14.46343994140625,
    134.3955078125
   ]
  },
  {
   "bufferView": 10,
   "componentType": 5126,
   "count": 78,
   "type": "VEC3"
  },
  {
   "bufferView": 11,
   "componentType": 5126,
   "count": 78,
   "type": "VEC2"
  },
  {
   "bufferView": 12,
   "componentType": 5126,
   "count": 78,
   "type": "VEC3",
   "min": [
    -10.346778869628906,
    -15.033920288085938,
    -75.23291015625
   ],
   "max": [
    9.958030700683594,
    14.468276977539062,
    135.2181396484375
   ]
  },
  {
   "bufferView": 13,
   "componentType": 5126,
   "count": 78,
   "type": "VEC3"
  },
  {
   "bufferView": 14,
   "componentType": 5126,
   "count": 78,
   "type": "VEC2"
  },
  {
   "bufferView": 15,
   "componentType": 5126,
   "count": 36,
   "type": "VEC3",
   "min": [
    -91.55169677734375,
    -45.89544677734375,
    -144.39462280273438
   ],
   "max": [
    57.3602294921875,
    77.55985260009766,
    153.27267456054688
   ]
  },
  {
   "bufferView": 16,
   "componentType": 5126,
   "count": 36,
   "type": "VEC3"
  },
  {
   "bufferView": 17,
   "componentType": 5126,
   "count": 36,
   "type": "VEC2"
  },
  {
   "bufferView": 18,
   "componentType": 5126,
   "count": 36,
   "type": "VEC3",
   "min": [
    -101.17705535888672,
    -68.98263549804688,
    -144.39158630371094
   ],
   "max": [
    53.87432861328125,
    67.82061004638672,
    153.27577209472656
   ]
  },
  {
   "bufferView": 19,
   "componentType": 5126,
   "count": 36,
   "type": "VEC3"
  },
  {
   "bufferView": 20,
   "componentType": 5126,
   "count": 36,
   "type": "VEC2"
  },
  {
   "bufferView": 21,
   "componentType": 5126,
   "count": 36,
   "type": "VEC3",
   "min": [
    -51.69153594970703,
    -60.046470642089844,
    -144.3881378173828
   ],
   "max": [
    97.97266387939453,
    68.36511993408203,
    153.27915954589844
   ]
  },
  {
   "bufferView": 22,
   "componentType": 5126,
   "count": 36,
   "type": "VEC3"
  },
  {
   "bufferView": 23,
   "componentType": 5126,
   "count": 36,
   "type": "VEC2"
  },
  {
   "bufferView": 24,
   "componentType": 5126,
   "count": 180,
   "type": "VEC3",
   "min": [
    -160.18807983398438,
    -170.144775390625,
    -448.90484619140625
   ],
   "max": [
    158.2488250732422,
    163.30210876464844,
    556.4190673828125
   ]
  },
  {
   "bufferView": 25,
   "componentType": 5126,
   "count": 180,
   "type": "VEC3"
  },
  {
   "bufferView": 26,
   "componentType": 5126,
   "count": 180,
   "type": "VEC2"
  },
  {
   "bufferView": 27,
   "componentType": 5126,
   "count": 96,
   "type": "VEC3",
   "min": [
    -105.03660583496094,
    -202.12310791015625,
    -417.2259521484375
   ],
   "max": [
    160.753173828125,
    104.19281005859375,
    337.6892395019531
   ]
  },
  {
   "bufferView": 28,
   "componentType": 5126,
   "count": 96,
   "type": "VEC3"
  },
  {
   "bufferView": 29,
   "componentType": 5126,
   "count": 96,
   "type": "VEC2"
  },
  {
   "bufferView": 30,
   "componentType": 5126,
   "count": 180,
   "type": "VEC3",
   "min": [
    -160.27230834960938,
    -159.99545288085938,
    -450.89300537109375
   ],
   "max": [
    158.98666381835938,
    173.75863647460938,
    551.55859375
   ]
  },
  {
   "bufferView": 31,
   "componentType": 5126,
   "count": 180,
   "type": "VEC3"
  },
  {
   "bufferView": 32,
   "componentType": 5126,
   "count": 180,
   "type": "VEC2"
  },
  {
   "bufferView": 33,
   "componentType": 5126,
   "count": 96,
   "type": "VEC3",
   "min": [
    -159.7869873046875,
    -100.27481079101562,
    -421.68035888671875
   ],
   "max": [
    106.71871948242188,
    206.0816192626953,
    330.99981689453125
   ]
  },
  {
   "bufferView": 34,
   "componentType": 5126,
   "count": 96,
   "type": "VEC3"
  },
  {
   "bufferView": 35,
   "componentType": 5126,
   "count": 96,
   "type": "VEC2"
  },
  {
   "bufferView": 36,
   "componentType": 5126,
   "count": 180,
   "type": "VEC3",
   "min": [
    -146.931396484375,
    -183.6667938232422,
    -447.15582275390625
   ],
   "max": [
    164.69253540039062,
    144.54473876953125,
    556.3511962890625
   ]
  },
  {
   "bufferView": 37,
   "componentType": 5126,
   "count": 180,
   "type": "VEC3"
  },
  {
   "bufferView": 38,
   "componentType": 5126,
   "count": 180,
   "type": "VEC2"
  },
  {
   "bufferView": 39,
   "componentType": 5126,
   "count": 96,
   "type": "VEC3",
   "min": [
    -189.81617736816406,
    -134.3294219970703,
    -412.62738037109375
   ],
   "max": [
    68.659912109375,
    168.7377166748047,
    340.8663024902344
   ]
  },
  {
   "bufferView": 40,
   "componentType": 5126,
   "count": 96,
   "type": "VEC3"
  },
  {
   "bufferView": 41,
   "componentType": 5126,
   "count": 96,
   "type": "VEC2"
  },
  {
   "bufferView": 42,
   "componentType": 5126,
   "count": 180,
   "type": "VEC3",
   "min": [
    -167.51670837402344,
    -146.89785766601562,
    -444.925537109375
   ],
   "max": [
    155.20143127441406,
    189.2191619873047,
    557.5255126953125
   ]
  },
  {
   "bufferView": 43,
   "componentType": 5126,
   "count": 180,
   "type": "VEC3"
  },
  {
   "bufferView": 44,
   "componentType": 5126,
   "count": 180,
   "type": "VEC2"
  },
  {
   "bufferView": 45,
   "componentType": 5126,
   "count": 96,
   "type": "VEC3",
   "min": [
    -78.58796691894531,
    -163.7010498046875,
    -415.1241455078125
   ],
   "max": [
    192.4722900390625,
    143.5166778564453,
    337.5560302734375
   ]
  },
  {
   "bufferView": 46,
   "componentType": 5126,
   "count": 96,
   "type": "VEC3"
  },
  {
   "bufferView": 47,
   "componentType": 5126,
   "count": 96,
   "type": "VEC2"
  }
 ],
 "bufferViews": [
  {
   "buffer": 0,
   "byteOffset": 0,
   "byteLength": 432,
   "target": 34962
  },
  {
   "buffer": 0,
   "byteOffset": 432,
   "byteLength": 432,
   "target": 34962
  },
  {
   "buffer": 0,
   "byteOffset": 864,
   "byteLength": 288,
   "target": 34962
  },
  {
   "buffer": 0,
   "byteOffset": 1152,
   "byteLength": 6912,
   "target": 34962
  },
  {
   "buffer": 0,
   "byteOffset": 8064,
   "byteLength": 6912,
   "target": 34962
  },
  {
   "buffer": 0,
   "byteOffset": 14976,
   "byteLength": 4608,
   "target": 34962
  },
  {
   "buffer": 0,
   "byteOffset": 19584,
   "byteLength": 360,
   "target": 34962
  },
  {
   "buffer": 0,
   "byteOffset": 19944,
   "byteLength": 360,
   "target": 34962
  },
  {
   "buffer": 0,
   "byteOffset": 20304,
   "byteLength": 240,
   "target": 34962
  },
  {
   "buffer": 0,
   "byteOffset": 20544,
   "byteLength": 936,
   "target": 34962
  },
  {
   "buffer": 0,
   "byteOffset": 21480,
   "byteLength": 936,
   "target": 34962
  },
  {
   "buffer": 0,
   "byteOffset": 22416,
   "byteLength": 624,
   "target": 34962
  },
  {
   "buffer": 0,
   "byteOffset": 23040,
   "byteLength": 936,
   "target": 34962
  },
  {
   "buffer": 0,
   "byteOffset": 23976,
   "byteLength": 936,
   "target": 34962
  },
  {
   "buffer": 0,
   "byteOffset": 24912,
   "byteLength": 624,
   "target": 34962
  },
  {
   "buffer": 0,
   "byteOffset": 25536,
   "byteLength": 432,
   "target": 34962
  },
  {
   "buffer": 0,
   "byteOffset": 25968,
   "byteLength": 432,
   "target": 34962
  },
  {
   "buffer": 0,
   "byteOffset": 26400,
   "byteLength": 288,
   "target": 34962
  },
  {
   "buffer": 0,
   "byteOffset": 26688,
   "byteLength": 432,
   "target": 34962
  },
  {
   "buffer": 0,
   "byteOffset": 27120,
   "byteLength": 432,
   "target": 34962
  },
  {
   "buffer": 0,
   "byteOffset": 27552,
   "byteLength": 288,
   "target": 34962
  },
  {
   "buffer": 0,
   "byteOffset": 27840,
   "byteLength": 432,
   "target": 34962
  },
  {
   "buffer": 0,
   "byteOffset": 28272,
   "byteLength": 432,
   "target": 34962
  },
  {
   "buffer": 0,
   "byteOffset": 28704,
   "byteLength": 288,
   "target": 34962
  },
  {
   "buffer": 0,
   "byteOffset": 28992,
   "byteLength": 2160,
   "target": 34962
  },
  {
   "buffer": 0,
   "byteOffset": 31152,
   "byteLength": 2160,
   "target": 34962
  },
  {
   "buffer": 0,
   "byteOffset": 33312,
   "byteLength": 1440,
   "target": 34962
  },
  {
   "buffer": 0,
   "byteOffset": 34752,
   "byteLength": 1152,
   "target": 34962
  },
  {
   "buffer": 0,
   "byteOffset": 35904,
   "byteLength": 1152,
   "target": 34962
  },
  {
   "buffer": 0,
   "byteOffset": 37056,
   "byteLength": 768,
   "target": 34962
  },
  {
   "buffer": 0,
   "byteOffset": 37824,
   "byteLength": 2160,
   "target": 34962
  },
  {
   "buffer": 0,
   "byteOffset": 39984,
   "byteLength": 2160,
   "target": 34962
  },
  {
   "buffer": 0,
   "byteOffset": 42144,
   "byteLength": 1440,
   "target": 34962
  },
  {
   "buffer": 0,
   "byteOffset": 43584,
   "byteLength": 1152,
   "target": 34962
  },
  {
   "buffer": 0,
   "byteOffset": 44736,
   "byteLength": 1152,
   "target": 34962
  },
  {
   "buffer": 0,
   "byteOffset": 45888,
   "byteLength": 768,
   "target": 34962
  },
  {
   "buffer": 0,
   "byteOffset": 46656,
   "byteLength": 2160,
   "target": 34962
  },
  {
   "buffer": 0,
   "byteOffset": 48816,
   "byteLength": 2160,
   "target": 34962
  },
  {
   "buffer": 0,
   "byteOffset": 50976,
   "byteLength": 1440,
   "target": 34962
  },
  {
   "buffer": 0,
   "byteOffset": 52416,
   "byteLength": 1152,
   "target": 34962
  },
  {
   "buffer": 0,
   "byteOffset": 53568,
   "byteLength": 1152,
   "target": 34962
  },
  {
   "buffer": 0,
   "byteOffset": 54720,
   "byteLength": 768,
   "target": 34962
  },
  {
   "buffer": 0,
   "byteOffset": 55488,
   "byteLength": 2160,
   "target": 34962
  },
  {
   "buffer": 0,
   "byteOffset": 57648,
   "byteLength": 2160,
   "target": 34962
  },
  {
   "buffer": 0,
   "byteOffset": 59808,
   "byteLength": 1440,
   "target": 34962
  },
  {
   "buffer": 0,
   "byteOffset": 61248,
   "byteLength": 1152,
   "target": 34962
  },
  {
   "buffer": 0,
   "byteOffset": 62400,
   "byteLength": 1152,
   "target": 34962
  },
  {
   "buffer": 0,
   "byteOffset": 63552,
   "byteLength": 768,
   "target": 34962
  }
 ],
 "buffers": [
  {
   "uri": "kamov_native.bin",
   "byteLength": 64320
  }
 ]
}